<svg xmlns="http://www.w3.org/2000/svg" xmlns:xlink="http://www.w3.org/1999/xlink" width="500" zoomAndPan="magnify" viewBox="0 0 375 374.999991" height="500" preserveAspectRatio="xMidYMid meet" version="1.0"><defs><clipPath id="51bec6cf1c"><path d="M 0 78.75 L 375 78.75 L 375 296.25 L 0 296.25 Z M 0 78.75 " clip-rule="nonzero"/></clipPath></defs><g clip-path="url(#51bec6cf1c)"><path fill="#2563eb" d="M 251.191406 153.964844 L 228.289062 114.222656 C 221.691406 102.8125 212.84375 93.886719 202.441406 87.910156 L 201.355469 87.210938 C 191.265625 81.699219 179.542969 78.75 166.734375 78.75 C 153.460938 78.75 141.277344 81.933594 130.953125 87.910156 C 120.550781 93.886719 111.777344 102.8125 105.179688 114.144531 L 76.460938 163.902344 L 0.078125 296.25 L 47.039062 296.25 C 63.886719 296.25 78.324219 287.945312 86.707031 273.351562 L 116.902344 221.03125 C 117.601562 219.792969 118.921875 219.015625 120.316406 219.015625 C 121.792969 219.015625 123.035156 219.714844 123.734375 221.03125 L 146.710938 260.777344 C 153.308594 272.1875 162.15625 281.113281 172.558594 287.089844 L 173.644531 287.789062 C 183.65625 293.300781 195.457031 296.25 208.1875 296.25 C 221.460938 296.25 233.648438 293.066406 243.972656 287.089844 C 254.371094 281.113281 263.144531 272.1875 269.742188 260.855469 L 298.460938 211.097656 L 374.921875 78.75 L 327.960938 78.75 C 311.113281 78.75 296.675781 87.054688 288.292969 101.648438 L 258.097656 153.964844 C 257.398438 155.207031 256.078125 155.984375 254.683594 155.984375 C 253.207031 155.984375 251.964844 155.207031 251.191406 153.964844 Z M 149.8125 163.902344 L 245.445312 163.902344 C 246.921875 163.902344 248.164062 164.601562 248.859375 165.921875 C 249.558594 167.164062 249.558594 168.636719 248.859375 169.878906 L 225.03125 211.097656 L 129.476562 211.097656 C 128 211.097656 126.761719 210.398438 126.0625 209.078125 C 125.363281 207.835938 125.363281 206.363281 126.0625 205.121094 Z M 149.8125 163.902344 " fill-opacity="1" fill-rule="evenodd"/></g></svg>